<?xml version="1.0" encoding="iso-8859-1"?>
<!-- Generator: Adobe Illustrator 19.0.0, SVG Export Plug-In . SVG Version: 6.00 Build 0)  -->
<svg version="1.1" id="Capa_1" xmlns="http://www.w3.org/2000/svg" xmlns:xlink="http://www.w3.org/1999/xlink" x="0px" y="0px"
	 viewBox="0 0 512 512" style="enable-background:new 0 0 512 512;" xml:space="preserve">
<g>
	<path style="fill:#E0B07B;" d="M294.976,156.244c0-4.293-3.492-7.786-7.785-7.786c-4.293,0-7.786,3.492-7.786,7.786v141.987
		c0,4.293,3.493,7.785,7.786,7.785s7.785-3.492,7.785-7.785V156.244z"/>
	<path style="fill:#E0B07B;" d="M335.85,192.871c-1.078,0-2.172,0.225-3.216,0.7L283.96,215.67
		c-3.906,1.78-5.636,6.406-3.857,10.313c1.262,2.771,4.044,4.56,7.09,4.56c1.115,0,2.199-0.236,3.225-0.703l48.672-22.099
		c3.905-1.78,5.635-6.406,3.857-10.313C341.643,194.565,338.81,192.871,335.85,192.871z"/>
	<path style="fill:#E0B07B;" d="M290.418,215.669L244.2,194.627c-1.043-0.475-2.138-0.7-3.216-0.7c-2.959,0-5.792,1.694-7.097,4.558
		c-1.78,3.906-0.05,8.533,3.857,10.313l46.218,21.043c1.024,0.467,2.108,0.703,3.223,0.703c3.044,0,5.827-1.79,7.09-4.56
		C296.054,222.077,294.324,217.45,290.418,215.669z"/>
</g>
<path style="fill:#4FD255;" d="M290.503,0.958c-2.02-1.277-4.605-1.277-6.625,0C256.205,18.453,237.814,49.3,237.814,84.46
	s18.39,66.008,46.064,83.503c2.02,1.277,4.605,1.277,6.625,0c27.673-17.495,46.064-48.342,46.064-83.503
	C336.565,49.301,318.175,18.454,290.503,0.958z"/>
<path style="fill:#2CB855;" d="M283.882,0.957c-4.501,2.847-8.753,6.051-12.724,9.564c20.442,18.087,33.344,44.498,33.344,73.941
	s-12.901,55.854-33.344,73.941c3.971,3.514,8.223,6.717,12.724,9.564c2.018,1.277,4.602,1.274,6.621-0.002
	c27.673-17.495,46.063-48.342,46.063-83.503s-18.39-66.008-46.063-83.503C288.485-0.318,285.9-0.32,283.882,0.957z"/>
<path style="fill:#4FD255;" d="M481.277,137.972c0.325-2.368-0.747-4.72-2.747-6.029c-27.394-17.929-63.089-21.876-95.086-7.298
	c-31.997,14.577-52.443,44.101-56.891,76.538c-0.325,2.368,0.747,4.72,2.747,6.029c27.394,17.929,63.089,21.875,95.086,7.298
	C456.382,199.933,476.828,170.409,481.277,137.972z"/>
<path style="fill:#2CB855;" d="M478.533,131.947c-4.457-2.915-9.135-5.457-13.979-7.613c-7.984,26.101-26.669,48.791-53.462,60.998
	c-26.793,12.207-56.176,11.417-81.111,0.312c-1.551,5.071-2.703,10.268-3.428,15.544c-0.325,2.366,0.748,4.717,2.747,6.024
	c27.394,17.929,63.089,21.875,95.086,7.298c31.997-14.577,52.443-44.101,56.891-76.537
	C481.601,135.607,480.532,133.255,478.533,131.947z"/>
<path style="fill:#4FD255;" d="M93.108,137.972c-0.325-2.368,0.747-4.72,2.747-6.029c27.394-17.929,63.089-21.876,95.086-7.298
	c31.997,14.577,52.443,44.101,56.891,76.538c0.325,2.368-0.747,4.72-2.747,6.029c-27.394,17.929-63.089,21.875-95.086,7.298
	C118.002,199.933,97.556,170.409,93.108,137.972z"/>
<path style="fill:#2CB855;" d="M95.851,131.947c4.457-2.915,9.135-5.457,13.979-7.613c7.984,26.101,26.669,48.791,53.462,60.998
	c26.793,12.207,56.176,11.417,81.111,0.312c1.55,5.071,2.703,10.268,3.428,15.544c0.325,2.366-0.748,4.717-2.747,6.024
	c-27.394,17.929-63.089,21.875-95.086,7.298c-31.997-14.577-52.443-44.101-56.891-76.537
	C92.784,135.607,93.852,133.255,95.851,131.947z"/>
<path style="fill:#FE8A46;" d="M182.473,340.981c26.989-26.444,63.95-42.748,104.719-42.748
	c82.643,0,149.638,66.995,149.638,149.638v21.376H234.819L182.473,340.981z"/>
<g>
	<path style="fill:#F26C2C;" d="M287.192,298.233c-5.415,0-10.761,0.296-16.026,0.857c75.101,8.003,133.602,71.557,133.602,148.781
		v21.376h32.063v-21.376C436.83,365.228,369.835,298.233,287.192,298.233z"/>
	<path style="fill:#F26C2C;" d="M308.569,370.716h-52.675c-4.614,0-8.353-3.739-8.353-8.353s3.739-8.353,8.353-8.353h52.675
		c4.613,0,8.353,3.739,8.353,8.353S313.183,370.716,308.569,370.716z"/>
	<path style="fill:#F26C2C;" d="M351.323,413.471h-21.377c-4.614,0-8.353-3.739-8.353-8.353s3.739-8.353,8.353-8.353h21.377
		c4.614,0,8.353,3.739,8.353,8.353S355.937,413.471,351.323,413.471z"/>
</g>
<path style="fill:#FFD2BA;" d="M426.142,447.87H306.735l0,0c1.183-3.345,1.832-6.941,1.832-10.689
	c0-7.929-2.878-15.187-7.647-20.784l-53.118-63.743c-5.881-7.127-14.781-11.669-24.743-11.669H105.467l0.002,85.506h32.082
	c10.661,0,20.108,5.204,25.938,13.209l44.349,59.127c5.832,7.985,15.265,13.171,25.91,13.171h192.394
	c17.709,0,32.065-14.356,32.065-32.065C458.208,462.226,443.852,447.87,426.142,447.87z"/>
<g>
	<path style="fill:#FFBC99;" d="M454.1,464.237c-5.496,9.766-15.952,16.367-27.956,16.367H305.23
		c11.217-7.452,19.402-19.12,22.252-32.734h-20.767c-4.404,12.45-16.273,21.373-30.233,21.373l0,0c-3.112,0-6.122-0.444-8.969-1.271
		c-6.261-1.82-11.732-5.498-15.774-10.398l-42.05-50.914l-0.21-0.075c-5.882-7.021-14.708-11.489-24.584-11.489h-79.427v31.396
		h32.081c10.661,0,20.108,5.204,25.938,13.21l44.349,59.127c5.832,7.985,15.265,13.171,25.91,13.171h192.394
		c17.709,0,32.065-14.356,32.065-32.065C458.208,474.23,456.711,468.878,454.1,464.237z"/>
	<path style="fill:#FFBC99;" d="M256.682,429.564c-2.696,2.162-3.102,6.112-0.901,8.777l7.808,9.454
		c3.194,3.871,7.893,6.088,12.896,6.088c7.183,0,13.321-4.558,15.673-10.932c0.046-0.139,0.097-0.278,0.148-0.415
		c0.57-1.682,0.879-3.482,0.879-5.353c0-5.083-2.164-8.69-3.978-10.82c-0.035-0.041-0.07-0.085-0.107-0.127l-7.43-8.916
		c-2.161-2.593-6-2.978-8.633-0.867L256.682,429.564z"/>
</g>
<path style="fill:#DCF3F4;" d="M109.981,447.869H73.4V319.608h36.581c3.421,0,6.194,2.773,6.194,6.194v115.872
	C116.175,445.095,113.402,447.869,109.981,447.869z"/>
<path style="fill:#B0CDCF;" d="M73.4,415.804h42.685v25.969c0,3.421-2.773,6.194-6.194,6.194H73.4V415.804z"/>
<path style="fill:#25739E;" d="M36.859,469.244h41.057c3.421,0,6.194-2.773,6.194-6.194V304.424c0-3.421-2.773-6.194-6.194-6.194
	H36.859c-3.421,0-6.194,2.773-6.194,6.194v158.626C30.666,466.472,33.438,469.244,36.859,469.244z"/>
<path style="fill:#216486;" d="M36.859,469.244h41.057c3.421,0,6.194-2.773,6.194-6.194v-25.87H30.666v25.87
	C30.666,466.472,33.438,469.244,36.859,469.244z"/>
<path style="fill:#FFD347;" d="M52.045,370.103c-4.276,0-7.742-3.466-7.742-7.742v-21.376c0-4.276,3.466-7.742,7.742-7.742
	s7.742,3.466,7.742,7.742v21.376C59.788,366.636,56.321,370.103,52.045,370.103z"/>
<g>
</g>
<g>
</g>
<g>
</g>
<g>
</g>
<g>
</g>
<g>
</g>
<g>
</g>
<g>
</g>
<g>
</g>
<g>
</g>
<g>
</g>
<g>
</g>
<g>
</g>
<g>
</g>
<g>
</g>
</svg>
